<?xml version="1.0" encoding="utf-8"?>
<!-- Generator: Adobe Illustrator 25.2.3, SVG Export Plug-In . SVG Version: 6.00 Build 0)  -->
<svg version="1.1" id="Layer_1" xmlns="http://www.w3.org/2000/svg" xmlns:xlink="http://www.w3.org/1999/xlink" x="0px" y="0px"
	 viewBox="0 0 263.8 255.1" style="enable-background:new 0 0 263.8 255.1;" xml:space="preserve">
<path d="M75.3,85.9c3,4.2,4.6,9.3,4.6,15.4v58h-33v-55.8c0-4.2-0.6-7.2-1.8-8.9c-1.2-1.7-3.1-2.5-5.7-2.5H33v67.1H0V0h40.7
	C53,0,62.5,2.7,69.1,8.1c6.6,5.4,9.9,14.1,9.9,26.1v10.2c0,10.3-1.3,18.1-3.9,23.2c-2.6,5.2-7.1,8.5-13.4,10
	C67.7,79,72.3,81.7,75.3,85.9z M46,41c0-4.2-0.6-7.2-1.8-8.9c-1.2-1.7-3.1-2.5-5.7-2.5H33v35.3h5.5c2.6,0,4.5-0.8,5.7-2.5
	c1.2-1.7,1.8-4.6,1.8-8.9V41z"/>
<g>
	<path d="M134.6,158.4c-7.5-2.9-10.8-7.6-10.9-10.2c0,0,0.3-1.7,2.2-0.3c0,0,7.8,2.2,11.6,2.4c3.8,0.1,6.2-3.1,8.7-7.6
		c2.5-4.5,6.7-14.7,8-19.7c1.3-5-0.8-6.9,1.1-9.7c1.8-2.8,7-11,7-11l8.8-13.1c0,0,0.2-1.4,0.6-2.4v-7.4c-0.3-0.6-0.6-1-0.6-1.2
		c0-0.4,0-13.6-1.1-14.8c-1.1-1.2-6.2-4.1-8.7-5.5c-2.5-1.4-4.9-3.4-6.3-3.4c-1.4,0-4.2-1.4-4.2-2.6c0-1.2,0.9-6.9,2.9-6.9
		c2,0,4.6,1.6,4.9,2.8c0.3,1.2,0.8,3.1,0.8,3.1s5.4,3,7.8,3.1c0,0,0.5-1-0.3-2.8c-0.8-1.7-3.2-6.2-2.6-9.2c0.5-3,1.4-5,2.8-6.4
		c1.3-1.4,3.9-3.5,3.3-6c-0.7-2.5-2-3.3-3.3-3c-1.3,0.3-3.2,0.8-3.7,0.4c-0.5-0.4-2.2-5.9-2.8-6.3c-0.5-0.4-1.7,0.7-2-0.3
		c-0.3-0.9,1.2-4.2,1.2-4.8c0-0.7-0.7-4.2-0.4-5c0.3-0.8,0.4-2.9,0.4-2.9s-1.4-2.9,0.3-4.5c0.8-0.8,2.2-2.2,4-3.3h-23.8v120.8
		c0,4.2-0.6,7.2-1.8,8.9c-1.2,1.7-3.1,2.5-5.7,2.5c-2.6,0-4.5-0.8-5.7-2.5c-1.2-1.7-1.8-4.6-1.8-8.9V0H93.8v121.8
		c0,14.3,3.3,24.7,10,31.2c6.7,6.5,16.3,9.8,28.9,9.8c3,0,5.8-0.2,8.4-0.6C140.1,161.5,139.5,160.3,134.6,158.4z"/>
	<path d="M170.9,114.2c0,0-4.9,3.7-5.5,4.5c0,0-0.1,11.5-3.2,16.4c-3,4.8-8.4,9.6-11.7,16.8c-2,4.4-2.7,7.5-3.8,9.2
		c6-1.6,10.9-4.3,14.9-8.1c6.7-6.5,10-16.9,10-31.2v-7.8C171.4,114,171.1,114.1,170.9,114.2z"/>
</g>
<g>
	<path d="M201.4,123c-2.9-1-4.3-3.7-7.8-8.3c-2.4-3.3-5.7-9.6-8.2-12.2v56.7h31.2l-0.9-36.4C214.6,123,204.1,124,201.4,123z"/>
	<path d="M233,0l2,83.7L218.2,0h-32.8v26.8c2.4,0.5,5.1,1.4,8.3,3.2c0,0,2.4,0.5,5.4,0.8c3,0.3,7,2,8.4,2.9c1.4,0.9,7.4,4.3,6.8,6.2
		c-0.5,1.8-3.8,8.4-9.3,14.3c-5.5,5.9-5.8,7.5-6.1,8.1c-0.3,0.7,0.1,5.8-3.8,8.6c0,0-1.1,0.1-1.7-0.1c-0.7-0.3-0.7-0.3-0.7-0.3
		s-0.9,1.3-3,0.7c0,0,2.8,1.7,4.5,3.3c1.7,1.6,8.6,7.7,2.9,15.5c0,0,6.1,7.7,10.3,12.1l-2.6,4.8c0,0,2.4,4.8,2.8,5.1
		c0.3,0.2,3.9-0.7,7.9-1l-0.9-37.1l7.9,37.7c5.2,1.6,10,5.8,14.8,6.8c5,1,8.7-0.8,10.3-0.7c1.6,0.1,3.4,1.6,3.4,3.3s2.5,4.1,3.7,6.7
		c1.2,2.6,6.3,8.5,2.5,13.1c0,0-1.3,1.4-3.9-2.2c-2.6-3.7-7-8-9.9-9.6c-2.3-1.3-7.5-4.2-18.4-5.4l7.5,35.9h31.2V0H233z"/>
	<path d="M198.8,51.9c3.7-7.9,4.7-9.8,3.6-10.2c-1.2-0.4-9.1-1.4-10.7-1.2l-1.3,22C190.4,62.5,195.1,59.7,198.8,51.9z"/>
</g>
<g>
	<path d="M32.5,176.4v14.9H16.3v13.4h15.6V219H16.3v34.5h-16v-77.1H32.5z"/>
	<path d="M71.2,179.5c3.3,3.2,4.9,8.2,4.9,15.1v40.7c0,6.9-1.6,11.9-4.9,15.1c-3.3,3.2-8,4.7-14.2,4.7c-6.2,0-10.9-1.6-14.2-4.7
		c-3.3-3.2-4.9-8.2-4.9-15.1v-40.7c0-6.9,1.6-11.9,4.9-15.1c3.3-3.2,8-4.7,14.2-4.7C63.2,174.7,67.9,176.3,71.2,179.5z M60.7,195
		c0-2.1-0.3-3.5-0.9-4.3c-0.6-0.8-1.5-1.2-2.8-1.2c-1.2,0-2.2,0.4-2.8,1.2c-0.6,0.8-0.9,2.2-0.9,4.3v39.9c0,2.1,0.3,3.5,0.9,4.3
		c0.6,0.8,1.5,1.2,2.8,1.2c1.2,0,2.2-0.4,2.8-1.2c0.6-0.8,0.9-2.2,0.9-4.3V195z"/>
	<path d="M119.2,217.9c1.5,2,2.2,4.5,2.2,7.4v28.1h-16v-27c0-2.1-0.3-3.5-0.9-4.3c-0.6-0.8-1.5-1.2-2.8-1.2h-3.1v32.5h-16v-77.1
		h19.7c5.9,0,10.5,1.3,13.7,3.9c3.2,2.6,4.8,6.8,4.8,12.6v5c0,5-0.6,8.7-1.9,11.2c-1.2,2.5-3.4,4.1-6.5,4.8
		C115.5,214.6,117.7,215.9,119.2,217.9z M105,196.2c0-2.1-0.3-3.5-0.9-4.3c-0.6-0.8-1.5-1.2-2.8-1.2h-2.6v17.1h2.6
		c1.2,0,2.2-0.4,2.8-1.2c0.6-0.8,0.9-2.2,0.9-4.3V196.2z"/>
	<path d="M174.4,176.4v14.9h-16.2v13.4h15.6V219h-15.6v34.5h-16v-77.1H174.4z"/>
	<path d="M203.6,176.4h15.2v58.9c0,6.9-1.6,11.9-4.8,15.1c-3.2,3.2-7.9,4.7-14,4.7c-6.1,0-10.8-1.6-14-4.7
		c-3.2-3.2-4.8-8.2-4.8-15.1v-58.9h15.2v58.5c0,2.1,0.3,3.5,0.9,4.3c0.6,0.8,1.5,1.2,2.8,1.2c1.2,0,2.2-0.4,2.8-1.2
		c0.6-0.8,0.9-2.2,0.9-4.3V176.4z"/>
	<path d="M249.6,216.9l-1-40.5h14.9v77.1h-15.1l-8.7-41.4l1,41.4h-15.1v-77.1h15.9L249.6,216.9z"/>
</g>
</svg>
